<svg xmlns="http://www.w3.org/2000/svg" viewBox="0 0 455 133">
 <style type="text/css">.st0{fill-rule:evenodd;clip-rule:evenodd;fill:#004D8D;}
	.st1{fill-rule:evenodd;clip-rule:evenodd;fill:#918F94;}</style>

 <g>
  <title>background</title>
  <rect fill="none" id="canvas_background" height="135" width="457" y="-1" x="-1"/>
 </g>
 <g>
  <title>Layer 1</title>
  <g id="svg_1">
   <path id="svg_2" d="m256.1,27.6c-1.5,-2.5 -4.9,-3.3 -7.4,-3.6l-0.6,-0.1c2.8,4.1 5.3,8.2 7.3,12.4c0.2,-0.5 0.4,-0.9 0.5,-1.3c1.2,-3.1 1.3,-5.6 0.2,-7.4" class="st0"/>
   <path id="svg_3" d="m226.3,60.3c1.3,3.5 2.8,5.3 4.5,5.6c2.1,0.4 4.9,-1.3 9.1,-5.7c0.8,-0.9 1.8,-1.9 2.7,-3.1c-4.7,0.1 -10.4,0.6 -16.9,1.4c0,0.4 0.6,1.8 0.6,1.8" class="st0"/>
   <path stroke="null" id="svg_4" d="m216.8,41c2.5,3.8 4.8,8.2 7,13.3c0.6,-0.1 1.2,-0.2 1.9,-0.3c6.2,-0.9 13.2,-1.4 20,-1.2c3.8,-5.4 7.1,-11.3 8.8,-14.7c-2.5,-4.8 -5.7,-9.6 -9.6,-14.6c-5.8,-0.5 -12.4,-0.4 -19.1,0.3c-0.9,2.2 -2.4,5.5 -4.5,9.2c-1.7,3 -3.2,5.6 -4.5,8" class="st0"/>
   <path id="svg_5" d="m256.5,13.1c-7.5,-7.5 -17.6,-11.7 -28.3,-11.7c-8.9,0 -17.4,2.9 -24.4,8.3c-6.7,5.2 -11.7,12.5 -14,20.7c8.6,-4.2 19.9,-7.5 32,-9.2c0.8,-2.6 1.4,-5.1 2,-7.3c1.1,-4.5 1.9,-7.8 4,-8.4c2.3,-0.6 5.9,1.9 12.5,8.6c0,0 0,0 0,0l0,0l5,5.9c2.8,0.2 5.3,0.5 7.6,1l0.3,0.1c2.1,0.4 6.5,1.3 8.3,4.5c1,1.9 1,4.2 0,7c-1.2,3.2 -2.4,6.1 -3.7,8.8c1.1,2.8 2.1,5.6 2.8,8.3c0,0.1 0.1,0.3 0.1,0.6c0.1,0.7 -0.4,1.3 -0.4,1.4l-0.2,0.3l-0.1,-0.3c-0.8,-2.9 -1.8,-5.7 -3,-8.5c-1.8,3.5 -3.7,6.8 -6,10c5.8,0.4 10.9,1.3 14.7,2.5c1.7,-4.5 2.6,-9.3 2.6,-14.2c-0.1,-10.8 -4.2,-20.9 -11.8,-28.4" class="st0"/>
   <path id="svg_6" d="m212.9,53.2c0.9,1.4 3.6,1.8 8.5,1.3c-1.7,-4.4 -3.5,-8.2 -5.6,-11.8c-2.6,5 -4.1,8.7 -2.9,10.5" class="st0"/>
   <path id="svg_7" d="m241.9,19.8c-4.8,-5.6 -7.5,-7.8 -9.4,-7.5c-2,0.3 -3.2,3.4 -5.1,8l-0.1,0.2c5.1,-0.6 10,-0.8 14.6,-0.7" class="st0"/>
   <path id="svg_8" d="m247.8,57.2c-2.3,2.9 -5,5.9 -8.4,9.4c-5,5.1 -7.7,7.4 -9.9,6.9c-1.5,-0.4 -2.7,-2.2 -3.7,-5.9c-0.9,-3.1 -1.8,-6 -2.7,-8.8l-3.6,0.5c-8.2,1.2 -12.7,0.5 -14.3,-2c-2.3,-3.6 2,-10.6 7.8,-19.5c-1.3,-1.9 -2.7,-3.7 -4.2,-5.5c-0.2,-0.2 -0.3,-0.3 -0.4,-0.4l-0.2,-0.3l0.3,0c0.5,0 1,0.1 1.4,0.5c1.3,1.4 2.6,2.9 3.8,4.5l0.6,-0.9l2.6,-4c1.5,-2.2 2.7,-4.6 3.7,-7.2c-14.9,2.2 -25.6,6.9 -30.1,12.7c-1.8,2.1 -2.4,4.3 -2,8.2c1.1,9.2 4.7,17.3 11.6,24.3c7.5,7.5 17.5,11.6 28.1,11.6c11.7,0 22.7,-5.1 30.3,-14c1.8,-2.5 2.4,-4.5 1.6,-6.1c-1,-2.4 -5.2,-3.7 -12.3,-4" class="st0"/>
   <path id="svg_9" d="m126.9,104.8l6.3,-16l3.3,0l6.3,16l-3.4,0l-1.7,-4.3l-6.7,0l-1.7,4.3l-2.4,0zm4.9,-6.4l5,0l-2.5,-6.4l-2.5,6.4z" class="st0"/>
   <polygon id="svg_10" points="145.5,104.80000305175781 145.5,88.80000305175781 148.89999389648438,88.80000305175781 148.89999389648438,102.5 156.10000610351562,102.5 156.10000610351562,104.80000305175781 " class="st0"/>
   <path id="svg_11" d="m159,104.8l0,-16l5.4,0c1.6,0 2.8,0.3 3.7,0.9c0.8,0.6 1.3,1.5 1.3,2.7c0,1.9 -1.3,3.3 -3.8,4.1c3,0.7 4.5,2.2 4.5,4.4c0,1.3 -0.4,2.3 -1.3,2.9c-0.9,0.7 -2.1,1 -3.8,1l-6,0zm3.1,-9.3l0.8,0c0.9,0 1.7,-0.2 2.2,-0.7c0.5,-0.5 0.8,-1.1 0.8,-1.9c0,-0.7 -0.2,-1.2 -0.7,-1.5c-0.4,-0.3 -1.3,-0.4 -2.5,-0.4l-0.7,0l0,4.5l0.1,0zm0,7l0.7,0c1.4,0 2.3,-0.1 2.9,-0.4c0.5,-0.3 0.8,-0.8 0.8,-1.6c0,-0.8 -0.4,-1.5 -1.1,-2c-0.7,-0.5 -1.6,-0.8 -2.7,-0.8l-0.6,0l0,4.8z" class="st0"/>
   <polygon id="svg_12" points="173.5,104.80000305175781 173.5,88.80000305175781 183.60000610351562,88.80000305175781 183.60000610351562,91 176.89999389648438,91 176.89999389648438,95.5 182.39999389648438,95.5 182.39999389648438,97.5999984741211 176.89999389648438,97.5999984741211 176.89999389648438,102.5 184.10000610351562,102.5 184.10000610351562,104.80000305175781 " class="st0"/>
   <path id="svg_13" d="m187.4,104.8l0,-16l6,0c3.3,0 4.9,1.3 4.9,4c0,1 -0.3,1.9 -0.8,2.7c-0.6,0.8 -1.3,1.4 -2.3,1.9l5.2,7.5l-4.1,0l-4,-6.6l-1.9,0l0,6.6l-3,0l0,-0.1zm3.2,-8.8l0.8,0c2.4,0 3.6,-1 3.6,-2.9c0,-1.4 -1.1,-2.2 -3.2,-2.2l-1.2,0l0,5.1z" class="st0"/>
   <polygon id="svg_14" points="207.1999969482422,104.80000305175781 207.1999969482422,91 201.5,91 201.5,88.80000305175781 216.3000030517578,88.80000305175781 216.3000030517578,91 210.60000610351562,91 210.60000610351562,104.80000305175781 " class="st0"/>
   <polygon id="svg_15" points="227,104.80000305175781 227,88.80000305175781 237,88.80000305175781 237,91 230.3000030517578,91 230.3000030517578,95.5 235.79998779296875,95.5 235.79998779296875,97.5999984741211 230.3000030517578,97.5999984741211 230.3000030517578,102.5 237.5,102.5 237.5,104.80000305175781 " class="st0"/>
   <rect id="svg_16" height="16" width="3.3" class="st0" y="88.8" x="240.9"/>
   <polygon id="svg_17" points="248.79998779296875,104.80000305175781 248.79998779296875,88.80000305175781 251.70001220703125,88.80000305175781 259.20001220703125,99.69999694824219 259.20001220703125,88.80000305175781 261.8999938964844,88.80000305175781 261.8999938964844,104.80000305175781 258.8999938964844,104.80000305175781 251.5,93.80000305175781 251.5,104.80000305175781 " class="st0"/>
   <path id="svg_18" d="m265.5,104.6l0,-2.8c1.7,0.7 3.2,1.1 4.4,1.1c0.9,0 1.5,-0.2 2,-0.6c0.5,-0.4 0.7,-0.9 0.7,-1.6c0,-0.5 -0.2,-1 -0.5,-1.3c-0.3,-0.4 -0.9,-0.8 -1.8,-1.3l-1.1,-0.6c-1.4,-0.8 -2.5,-1.6 -3.1,-2.3c-0.6,-0.7 -0.9,-1.6 -0.9,-2.6c0,-1.3 0.5,-2.4 1.5,-3.2c1,-0.8 2.3,-1.2 3.9,-1.2c1.3,0 2.7,0.2 4.3,0.5l0,2.6c-1.6,-0.6 -2.9,-0.9 -3.9,-0.9c-0.7,0 -1.3,0.2 -1.8,0.5c-0.4,0.3 -0.7,0.8 -0.7,1.3c0,0.4 0.2,0.8 0.5,1.2c0.3,0.3 0.9,0.7 1.7,1.2l1.2,0.6c1.5,0.9 2.6,1.7 3.2,2.4c0.6,0.7 0.9,1.6 0.9,2.7c0,1.5 -0.6,2.6 -1.7,3.5c-1.1,0.8 -2.6,1.3 -4.6,1.3c-1,0.1 -2.5,-0.1 -4.2,-0.5" class="st0"/>
   <polygon id="svg_19" points="283.6000061035156,104.80000305175781 283.6000061035156,91 277.79998779296875,91 277.79998779296875,88.80000305175781 292.70001220703125,88.80000305175781 292.70001220703125,91 286.8999938964844,91 286.8999938964844,104.80000305175781 " class="st0"/>
   <polygon id="svg_20" points="295.5,104.80000305175781 295.5,88.80000305175781 305.5,88.80000305175781 305.5,91 298.79998779296875,91 298.79998779296875,95.5 304.29998779296875,95.5 304.29998779296875,97.5999984741211 298.79998779296875,97.5999984741211 298.79998779296875,102.5 306,102.5 306,104.80000305175781 " class="st0"/>
   <rect id="svg_21" height="16" width="3.3" class="st0" y="88.8" x="309.4"/>
   <polygon id="svg_22" points="317.29998779296875,104.80000305175781 317.29998779296875,88.80000305175781 320.20001220703125,88.80000305175781 327.70001220703125,99.69999694824219 327.70001220703125,88.80000305175781 330.29998779296875,88.80000305175781 330.29998779296875,104.80000305175781 327.3999938964844,104.80000305175781 320,93.80000305175781 320,104.80000305175781 " class="st0"/>
   <path id="svg_23" d="m6.4,130.2c-1.3,0 -2.9,-0.3 -4.9,-0.8l0,-2.7c2.1,1 3.9,1.5 5.3,1.5c1.1,0 1.9,-0.3 2.6,-0.8c0.6,-0.6 1,-1.3 1,-2.2c0,-0.7 -0.2,-1.4 -0.6,-1.9c-0.4,-0.5 -1.2,-1.1 -2.4,-1.8l-1.3,-0.8c-1.6,-0.9 -2.8,-1.8 -3.4,-2.6c-0.7,-0.8 -1,-1.8 -1,-2.9c0,-1.5 0.5,-2.7 1.6,-3.6c1.1,-0.9 2.4,-1.4 4.1,-1.4c1.5,0 3,0.2 4.6,0.7l0,2.5c-2,-0.8 -3.5,-1.2 -4.5,-1.2c-0.9,0 -1.7,0.2 -2.3,0.7c-0.6,0.5 -0.9,1.1 -0.9,1.9c0,0.6 0.2,1.2 0.7,1.7c0.4,0.5 1.3,1.1 2.4,1.8l1.4,0.8c1.6,0.9 2.8,1.8 3.5,2.7c0.7,0.8 1,1.8 1,3c0,1.7 -0.6,3 -1.8,4c-1.5,0.9 -3.1,1.4 -5.1,1.4" class="st1"/>
   <path id="svg_24" d="m22.4,130c-1.8,0 -3.2,-0.6 -4.3,-1.9c-1.1,-1.2 -1.6,-2.9 -1.6,-4.9c0,-2.1 0.6,-3.7 1.7,-4.9c1.1,-1.2 2.6,-1.9 4.4,-1.9c1.8,0 3.3,0.6 4.4,1.8c1.1,1.2 1.7,2.9 1.7,4.9c0,2.1 -0.6,3.8 -1.7,5c-1.3,1.3 -2.8,1.9 -4.6,1.9m0,-1.4c1.3,0 2.3,-0.5 3.1,-1.4c0.7,-1 1.1,-2.3 1.1,-4c0,-1.7 -0.4,-3 -1.1,-4c-0.7,-1 -1.7,-1.4 -3,-1.4c-1.3,0 -2.3,0.5 -3,1.4c-0.7,1 -1.1,2.3 -1.1,4c0,1.7 0.4,3 1.1,4c0.6,0.9 1.6,1.4 2.9,1.4" class="st1"/>
   <path id="svg_25" d="m37.3,130c-2,0 -3.6,-0.6 -4.7,-1.8c-1.1,-1.2 -1.6,-2.9 -1.6,-5c0,-2.2 0.6,-3.8 1.7,-5c1.1,-1.2 2.7,-1.8 4.7,-1.8c1.2,0 2.5,0.2 4.1,0.6l0,1.7c-1.8,-0.6 -3.1,-0.9 -4.1,-0.9c-1.4,0 -2.5,0.5 -3.3,1.4c-0.8,1 -1.2,2.3 -1.2,4c0,1.6 0.4,3 1.2,3.9c0.8,1 1.9,1.4 3.4,1.4c1.2,0 2.5,-0.4 3.9,-1.1l0,1.6c-1.2,0.7 -2.6,1 -4.1,1" class="st1"/>
   <rect id="svg_26" height="13" width="1.8" class="st1" y="116.7" x="44.9"/>
   <polygon id="svg_27" points="50.80000305175781,129.6999969482422 50.80000305175781,116.69999694824219 58,116.69999694824219 58,118.10000610351562 52.69999694824219,118.10000610351562 52.69999694824219,122.30000305175781 57.19999694824219,122.30000305175781 57.19999694824219,123.60000610351562 52.69999694824219,123.60000610351562 52.69999694824219,128.3000030517578 58.400001525878906,128.3000030517578 58.400001525878906,129.6999969482422 " class="st1"/>
   <path id="svg_28" d="m61.3,129.7l0,-13l4.3,0c1.3,0 2.3,0.1 3.1,0.4c0.8,0.3 1.5,0.8 2.1,1.5c0.9,1.1 1.4,2.5 1.4,4.3c0,2.2 -0.6,3.8 -1.7,5c-1.1,1.2 -2.7,1.8 -4.8,1.8l-4.4,0zm1.8,-1.4l2.3,0c1.7,0 2.9,-0.5 3.6,-1.4c0.8,-1 1.1,-2.3 1.1,-3.9c0,-1.5 -0.4,-2.7 -1.1,-3.6c-0.4,-0.5 -1,-0.9 -1.6,-1.1c-0.6,-0.2 -1.6,-0.3 -2.8,-0.3l-1.5,0l0,10.3z" class="st1"/>
   <path id="svg_29" d="m83.9,129.7l-1.4,-3.6l-5.5,0l-1.4,3.6l-1.7,0l5.2,-13l1.8,0l5.1,13l-2.1,0zm-1.9,-5l-2.2,-5.6l-2.2,5.6l4.4,0z" class="st1"/>
   <path id="svg_30" d="m88.5,129.7l0,-13l4.3,0c1.3,0 2.3,0.1 3.1,0.4c0.8,0.3 1.5,0.8 2.1,1.5c0.9,1.1 1.4,2.5 1.4,4.3c0,2.2 -0.6,3.8 -1.7,5c-1.1,1.2 -2.7,1.8 -4.8,1.8l-4.4,0zm1.8,-1.4l2.3,0c1.7,0 2.9,-0.5 3.6,-1.4c0.8,-1 1.1,-2.3 1.1,-3.9c0,-1.5 -0.4,-2.7 -1.1,-3.6c-0.4,-0.5 -1,-0.9 -1.6,-1.1c-0.6,-0.2 -1.6,-0.3 -2.8,-0.3l-1.5,0l0,10.3z" class="st1"/>
   <polygon id="svg_31" points="102.5999984741211,129.6999969482422 102.5999984741211,116.69999694824219 109.89999389648438,116.69999694824219 109.89999389648438,118.10000610351562 104.5,118.10000610351562 104.5,122.30000305175781 109,122.30000305175781 109,123.60000610351562 104.5,123.60000610351562 104.5,128.3000030517578 110.19999694824219,128.3000030517578 110.19999694824219,129.6999969482422 " class="st1"/>
   <path id="svg_32" d="m119.5,129.7l0,-13l3.3,0c1.3,0 2.3,0.2 3,0.7c0.7,0.5 1,1.2 1,2.1c0,1.6 -0.9,2.7 -2.6,3.3c2.1,0.7 3.2,1.8 3.2,3.5c0,1.1 -0.3,1.9 -1,2.4c-0.7,0.6 -1.7,0.8 -3,0.8l-3.9,0l0,0.2zm1.8,-7.3l0.6,0c1,0 1.7,-0.2 2.2,-0.6c0.5,-0.4 0.8,-1 0.8,-1.8c0,-1.3 -1,-1.9 -2.9,-1.9l-0.7,0l0,4.3zm0,5.9l0.4,0c1.3,0 2.2,-0.1 2.6,-0.3c0.7,-0.3 1.1,-0.9 1.1,-1.8c0,-0.8 -0.3,-1.4 -1,-1.9c-0.7,-0.5 -1.5,-0.8 -2.5,-0.8l-0.5,0l0,4.8l-0.1,0z" class="st1"/>
   <polygon id="svg_33" points="130.5,129.6999969482422 130.5,116.69999694824219 137.6999969482422,116.69999694824219 137.6999969482422,118.10000610351562 132.39999389648438,118.10000610351562 132.39999389648438,122.30000305175781 136.89999389648438,122.30000305175781 136.89999389648438,123.60000610351562 132.39999389648438,123.60000610351562 132.39999389648438,128.3000030517578 138.10000610351562,128.3000030517578 138.10000610351562,129.6999969482422 " class="st1"/>
   <polygon id="svg_34" points="141,129.6999969482422 141,116.69999694824219 142.6999969482422,116.69999694824219 149.3000030517578,126.69999694824219 149.3000030517578,116.69999694824219 150.8000030517578,116.69999694824219 150.8000030517578,129.6999969482422 149,129.6999969482422 142.5,119.69999694824219 142.5,129.6999969482422 " class="st1"/>
   <polygon id="svg_35" points="154.89999389648438,129.6999969482422 154.89999389648438,116.69999694824219 162.10000610351562,116.69999694824219 162.10000610351562,118.10000610351562 156.8000030517578,118.10000610351562 156.8000030517578,122.30000305175781 161.3000030517578,122.30000305175781 161.3000030517578,123.60000610351562 156.8000030517578,123.60000610351562 156.8000030517578,128.3000030517578 162.5,128.3000030517578 162.5,129.6999969482422 " class="st1"/>
   <polygon id="svg_36" points="165.39999389648438,129.6999969482422 165.39999389648438,116.69999694824219 172.60000610351562,116.69999694824219 172.60000610351562,118.10000610351562 167.1999969482422,118.10000610351562 167.1999969482422,122.39999389648438 171.6999969482422,122.39999389648438 171.6999969482422,123.80000305175781 167.1999969482422,123.80000305175781 167.1999969482422,129.6999969482422 " class="st1"/>
   <rect id="svg_37" height="13" width="1.8" class="st1" y="116.7" x="175.7"/>
   <path id="svg_38" d="m187.1,130c-2,0 -3.6,-0.6 -4.7,-1.8c-1.1,-1.2 -1.6,-2.9 -1.6,-5c0,-2.2 0.6,-3.8 1.7,-5c1.1,-1.2 2.7,-1.8 4.7,-1.8c1.2,0 2.5,0.2 4.1,0.6l0,1.7c-1.8,-0.6 -3.1,-0.9 -4.1,-0.9c-1.4,0 -2.5,0.5 -3.3,1.4c-0.8,1 -1.2,2.3 -1.2,4c0,1.6 0.4,3 1.2,3.9c0.8,1 1.9,1.4 3.4,1.4c1.2,0 2.5,-0.4 3.9,-1.1l0,1.6c-1.2,0.7 -2.6,1 -4.1,1" class="st1"/>
   <polygon id="svg_39" points="194.6999969482422,129.6999969482422 194.6999969482422,116.69999694824219 201.89999389648438,116.69999694824219 201.89999389648438,118.10000610351562 196.60000610351562,118.10000610351562 196.60000610351562,122.30000305175781 201.10000610351562,122.30000305175781 201.10000610351562,123.60000610351562 196.60000610351562,123.60000610351562 196.60000610351562,128.3000030517578 202.3000030517578,128.3000030517578 202.3000030517578,129.6999969482422 " class="st1"/>
   <polygon id="svg_40" points="205.10000610351562,129.6999969482422 205.10000610351562,116.69999694824219 206.89999389648438,116.69999694824219 213.5,126.69999694824219 213.5,116.69999694824219 215,116.69999694824219 215,129.6999969482422 213.1999969482422,129.6999969482422 206.6999969482422,119.69999694824219 206.6999969482422,129.6999969482422 " class="st1"/>
   <polygon stroke="null" id="svg_41" points="222.1999969482422,129.6999969482422 222.1999969482422,118.10000610351562 217.60000610351562,118.10000610351562 217.60000610351562,116.69999694824219 228.60000610351562,116.69999694824219 228.60000610351562,118.10000610351562 224,118.10000610351562 224,129.6999969482422 " class="st1"/>
   <polygon id="svg_42" points="231.1999969482422,129.6999969482422 231.1999969482422,116.69999694824219 238.39999389648438,116.69999694824219 238.39999389648438,118.10000610351562 233,118.10000610351562 233,122.30000305175781 237.5,122.30000305175781 237.5,123.60000610351562 233,123.60000610351562 233,128.3000030517578 238.79998779296875,128.3000030517578 238.79998779296875,129.6999969482422 " class="st1"/>
   <rect id="svg_43" height="13" width="1.8" class="st1" y="116.7" x="248"/>
   <path id="svg_44" d="m256.4,130c-0.9,0 -2,-0.2 -3.3,-0.6l0,-1.8c1.5,0.7 2.7,1 3.6,1c0.7,0 1.3,-0.2 1.7,-0.6c0.4,-0.4 0.7,-0.9 0.7,-1.5c0,-0.5 -0.1,-0.9 -0.4,-1.3c-0.3,-0.4 -0.8,-0.8 -1.6,-1.2l-0.9,-0.5c-1.1,-0.6 -1.9,-1.2 -2.3,-1.8c-0.5,-0.6 -0.7,-1.2 -0.7,-1.9c0,-1 0.4,-1.8 1.1,-2.5c0.7,-0.6 1.6,-1 2.8,-1c1,0 2,0.2 3.2,0.5l0,1.7c-1.4,-0.5 -2.4,-0.8 -3.1,-0.8c-0.6,0 -1.2,0.2 -1.6,0.5c-0.4,0.3 -0.6,0.8 -0.6,1.3c0,0.4 0.2,0.8 0.5,1.1c0.3,0.3 0.9,0.7 1.7,1.2l0.9,0.5c1.1,0.6 1.9,1.2 2.3,1.8c0.4,0.6 0.7,1.2 0.7,2c0,1.1 -0.4,2 -1.2,2.7c-1,0.9 -2.1,1.2 -3.5,1.2" class="st1"/>
   <path id="svg_45" d="m264.3,129.7l0,-13l3.9,0c1.2,0 2.2,0.3 2.9,0.8c0.7,0.5 1,1.3 1,2.4c0,1.7 -0.9,3 -2.6,3.7l4.3,6.1l-2.3,0l-3.7,-5.5l-1.7,0l0,5.5l-1.8,0zm1.8,-6.9l0.6,0c2.3,0 3.4,-0.9 3.4,-2.7c0,-1.3 -1,-2 -2.9,-2l-1.1,0l0,4.7z" class="st1"/>
   <path id="svg_46" d="m284.8,129.7l-1.4,-3.6l-5.5,0l-1.4,3.6l-1.7,0l5.2,-13l1.8,0l5.1,13l-2.1,0zm-1.9,-5l-2.2,-5.6l-2.2,5.6l4.4,0z" class="st1"/>
   <polygon id="svg_47" points="289.3999938964844,129.6999969482422 289.3999938964844,116.69999694824219 296.6000061035156,116.69999694824219 296.6000061035156,118.10000610351562 291.29998779296875,118.10000610351562 291.29998779296875,122.30000305175781 295.79998779296875,122.30000305175781 295.79998779296875,123.60000610351562 291.29998779296875,123.60000610351562 291.29998779296875,128.3000030517578 297,128.3000030517578 297,129.6999969482422 " class="st1"/>
   <polygon id="svg_48" points="299.8999938964844,129.6999969482422 299.8999938964844,116.69999694824219 301.70001220703125,116.69999694824219 301.70001220703125,128.3000030517578 307.5,128.3000030517578 307.5,129.6999969482422 " class="st1"/>
   <rect id="svg_49" height="13" width="1.8" class="st1" y="116.7" x="310.1"/>
   <polygon id="svg_50" points="319.1000061035156,129.6999969482422 319.1000061035156,118.10000610351562 314.5,118.10000610351562 314.5,116.69999694824219 325.5,116.69999694824219 325.5,118.10000610351562 320.8999938964844,118.10000610351562 320.8999938964844,129.6999969482422 " class="st1"/>
   <path id="svg_51" d="m336.6,129.7l-1.4,-3.6l-5.5,0l-1.4,3.6l-1.7,0l5.2,-13l1.8,0l5.1,13l-2.1,0zm-2,-5l-2.2,-5.6l-2.2,5.6l4.4,0z" class="st1"/>
   <path id="svg_52" d="m347.6,129.7l0,-13l3.3,0c1.3,0 2.3,0.2 3,0.7c0.7,0.5 1,1.2 1,2.1c0,1.6 -0.9,2.7 -2.6,3.3c2.1,0.7 3.2,1.8 3.2,3.5c0,1.1 -0.3,1.9 -1,2.4c-0.7,0.6 -1.7,0.8 -3,0.8l-3.9,0l0,0.2zm1.8,-7.3l0.6,0c1,0 1.7,-0.2 2.2,-0.6c0.5,-0.4 0.8,-1 0.8,-1.8c0,-1.3 -1,-1.9 -2.9,-1.9l-0.7,0l0,4.3zm0,5.9l0.4,0c1.3,0 2.2,-0.1 2.6,-0.3c0.7,-0.3 1.1,-0.9 1.1,-1.8c0,-0.8 -0.3,-1.4 -1,-1.9c-0.7,-0.5 -1.5,-0.8 -2.5,-0.8l-0.5,0l0,4.8l-0.1,0z" class="st1"/>
   <path id="svg_53" d="m358.6,129.7l0,-13l3.9,0c1.2,0 2.2,0.3 2.9,0.8c0.7,0.5 1,1.3 1,2.4c0,1.7 -0.9,3 -2.6,3.7l4.3,6.1l-2.3,0l-3.7,-5.5l-1.7,0l0,5.5l-1.8,0zm1.8,-6.9l0.6,0c2.3,0 3.4,-0.9 3.4,-2.7c0,-1.3 -1,-2 -2.9,-2l-1.1,0l0,4.7z" class="st1"/>
   <path id="svg_54" d="m379.2,129.7l-1.4,-3.6l-5.5,0l-1.4,3.6l-1.7,0l5.2,-13l1.8,0l5.1,13l-2.1,0zm-2,-5l-2.2,-5.6l-2.2,5.6l4.4,0z" class="st1"/>
   <path id="svg_55" d="m386.3,130c-0.9,0 -2,-0.2 -3.3,-0.6l0,-1.8c1.5,0.7 2.7,1 3.6,1c0.7,0 1.3,-0.2 1.7,-0.6c0.4,-0.4 0.7,-0.9 0.7,-1.5c0,-0.5 -0.1,-0.9 -0.4,-1.3c-0.3,-0.4 -0.8,-0.8 -1.6,-1.2l-0.9,-0.5c-1.1,-0.6 -1.9,-1.2 -2.3,-1.8c-0.5,-0.6 -0.7,-1.2 -0.7,-1.9c0,-1 0.4,-1.8 1.1,-2.5c0.7,-0.6 1.6,-1 2.8,-1c1,0 2,0.2 3.2,0.5l0,1.7c-1.4,-0.5 -2.4,-0.8 -3.1,-0.8c-0.6,0 -1.2,0.2 -1.6,0.5c-0.4,0.3 -0.6,0.8 -0.6,1.3c0,0.4 0.2,0.8 0.5,1.1c0.3,0.3 0.9,0.7 1.7,1.2l0.9,0.5c1.1,0.6 1.9,1.2 2.3,1.8c0.4,0.6 0.7,1.2 0.7,2c0,1.1 -0.4,2 -1.2,2.7c-1.1,0.9 -2.2,1.2 -3.5,1.2" class="st1"/>
   <rect id="svg_56" height="13" width="1.8" class="st1" y="116.7" x="394.1"/>
   <polygon id="svg_57" points="400,129.6999969482422 400,116.69999694824219 401.8999938964844,116.69999694824219 401.8999938964844,128.3000030517578 407.70001220703125,128.3000030517578 407.70001220703125,129.6999969482422 " class="st1"/>
   <polygon id="svg_58" points="410.29998779296875,129.6999969482422 410.29998779296875,116.69999694824219 417.5,116.69999694824219 417.5,118.10000610351562 412.1000061035156,118.10000610351562 412.1000061035156,122.30000305175781 416.6000061035156,122.30000305175781 416.6000061035156,123.60000610351562 412.1000061035156,123.60000610351562 412.1000061035156,128.3000030517578 417.8999938964844,128.3000030517578 417.8999938964844,129.6999969482422 " class="st1"/>
   <rect id="svg_59" height="13" width="1.8" class="st1" y="116.7" x="420.7"/>
   <path id="svg_60" d="m426.6,129.7l0,-13l3.9,0c1.2,0 2.2,0.3 2.9,0.8c0.7,0.5 1,1.3 1,2.4c0,1.7 -0.9,3 -2.6,3.7l4.3,6.1l-2.3,0l-3.7,-5.5l-1.7,0l0,5.5l-1.8,0zm1.9,-6.9l0.6,0c2.3,0 3.4,-0.9 3.4,-2.7c0,-1.3 -1,-2 -2.9,-2l-1.1,0l0,4.7z" class="st1"/>
   <path id="svg_61" d="m452,129.7l-2.1,-5.3l-8.1,0l-2.1,5.3l-2.5,0l7.6,-19.1l2.7,0l7.4,19.1l-2.9,0zm-2.9,-7.3l-3.2,-8.2l-3.3,8.2l6.5,0z" class="st1"/>
  </g>
 </g>
</svg>